# xmcd
#
# Track frame offsets:
#	150
#	14293
#	39695
#	63290
#	81508
#	99233
#	118304
#	129959
#	148458
#	165083
#	181336
#	198158
#	213121
#	239359
#	252815
#
# Disc length: 3551 seconds
#
# Revision: 0
# Processed by: cddbd v1.4PL0 Copyright (c) Steve Scherf et al.
# Submitted via: audiograbber 1.80
#
DISCID=c90ddd0f
DTITLE=Vários - Amigos Pra Valer [CD 2)
DYEAR=1900
DGENRE=
TTITLE0=Chitãozinho and Xororó - Nascemos Pra Cantar
TTITLE1=Zezé Di Camargo and Luciano - Pra Não Pensar Em Você
TTITLE2=Chitãozinho and Xororó - Disparada
TTITLE3=Chrystian and Ralf - Pot-pourri: Mia Gioconda
TTITLE4=Zezé Di Camargo and Luciano - Você Vai Ver
TTITLE5=Daniel - Planeta Água
TTITLE6=Chitãozinho and Xororó - Estrada Da Vida
TTITLE7=Roberta Miranda - A Mulher Em Mim
TTITLE8=Leandro and Leonardo - Não Olhe Assim
TTITLE9=Chitãozinho and Xororó - Bailão De Peão
TTITLE10=Zezé Di Camargo and Luciano - Casa No Campo
TTITLE11=Chitãozinho and Xororó - Ela Não Vai Chorar
TTITLE12=Leandro and Leonardo - Pot-pourri: É Uma Partida de Futebol - Beleza Rar
TTITLE12=a
TTITLE13=Chitãozinho and Xororó - Na Aba Do Meu Chapéu
TTITLE14=Chitãozinho and Xororó - Ave Maria
EXTD=By MASTER®
EXTT0=
EXTT1=
EXTT2=
EXTT3=
EXTT4=
EXTT5=
EXTT6=
EXTT7=
EXTT8=
EXTT9=
EXTT10=
EXTT11=
EXTT12=
EXTT13=
EXTT14=
PLAYORDER=
